REM DIRINDEX 1\2\6,1\2\7,1\2\8,1\2\9,1\3\10,1\3\11,1\4\12,1\4\13,1\4\14,1\5\15,1\5\16,1\5\17
REM DIRNAME folder01,folder02,folder03,folder04,folder05,folder06,folder07,folder08,folder09,folder10,folder11,folder12,folder13,folder14,folder15,folder16,folder17
TITLE ""
FILE "1900_2_sec17_1675_1700.mp3" MP3
  TRACK 01 AUDIO
    TITLE "0:"
    INDEX 01 00:00:00
  TRACK 02 AUDIO
    TITLE "13:cjc020_5505"
    INDEX 01 00:00:17
  TRACK 03 AUDIO
    TITLE "0:"
    INDEX 01 00:01:50
  TRACK 04 AUDIO
    TITLE "14:cjc020_5506"
    INDEX 01 00:01:52
  TRACK 05 AUDIO
    TITLE "0:"
    INDEX 01 00:03:17
  TRACK 06 AUDIO
    TITLE "13:cjc020_5507"
    INDEX 01 00:03:70
  TRACK 07 AUDIO
    TITLE "0:"
    INDEX 01 00:05:18
  TRACK 08 AUDIO
    TITLE "14:cjc020_5508"
    INDEX 01 00:05:20
  TRACK 09 AUDIO
    TITLE "0:"
    INDEX 01 00:06:39
  TRACK 10 AUDIO
    TITLE "13:cjc020_5509"
    INDEX 01 00:07:17
  TRACK 11 AUDIO
    TITLE "0:"
    INDEX 01 00:08:28
  TRACK 12 AUDIO
    TITLE "14:cjc020_5510"
    INDEX 01 00:08:32
  TRACK 13 AUDIO
    TITLE "0:"
    INDEX 01 00:12:69
  TRACK 14 AUDIO
    TITLE "13:cjc020_5511"
    INDEX 01 00:13:47
  TRACK 15 AUDIO
    TITLE "0:"
    INDEX 01 00:14:70
  TRACK 16 AUDIO
    TITLE "14:cjc020_5512"
    INDEX 01 00:14:72
  TRACK 17 AUDIO
    TITLE "0:"
    INDEX 01 00:18:39
  TRACK 18 AUDIO
    TITLE "13:cjc020_5513"
    INDEX 01 00:19:20
  TRACK 19 AUDIO
    TITLE "0:"
    INDEX 01 00:20:28
  TRACK 20 AUDIO
    TITLE "14:cjc020_5514"
    INDEX 01 00:20:34
  TRACK 21 AUDIO
    TITLE "0:"
    INDEX 01 00:23:10
  TRACK 22 AUDIO
    TITLE "13:cjc020_5515"
    INDEX 01 00:23:63
  TRACK 23 AUDIO
    TITLE "0:"
    INDEX 01 00:24:65
  TRACK 24 AUDIO
    TITLE "14:cjc020_5516"
    INDEX 01 00:24:71
  TRACK 25 AUDIO
    TITLE "0:"
    INDEX 01 00:27:16
  TRACK 26 AUDIO
    TITLE "13:cjc020_5517"
    INDEX 01 00:27:69
  TRACK 27 AUDIO
    TITLE "0:"
    INDEX 01 00:29:03
  TRACK 28 AUDIO
    TITLE "14:cjc020_5518"
    INDEX 01 00:29:07
  TRACK 29 AUDIO
    TITLE "0:"
    INDEX 01 00:31:41
  TRACK 30 AUDIO
    TITLE "13:cjc020_5519"
    INDEX 01 00:32:21
  TRACK 31 AUDIO
    TITLE "0:"
    INDEX 01 00:33:24
  TRACK 32 AUDIO
    TITLE "14:cjc020_5520"
    INDEX 01 00:33:28
  TRACK 33 AUDIO
    TITLE "0:"
    INDEX 01 00:37:03
  TRACK 34 AUDIO
    TITLE "13:cjc020_5521"
    INDEX 01 00:37:56
  TRACK 35 AUDIO
    TITLE "0:"
    INDEX 01 00:38:61
  TRACK 36 AUDIO
    TITLE "14:cjc020_5522"
    INDEX 01 00:38:63
  TRACK 37 AUDIO
    TITLE "0:"
    INDEX 01 00:40:09
  TRACK 38 AUDIO
    TITLE "13:cjc020_5523"
    INDEX 01 00:40:62
  TRACK 39 AUDIO
    TITLE "0:"
    INDEX 01 00:41:67
  TRACK 40 AUDIO
    TITLE "14:cjc020_5524"
    INDEX 01 00:41:73
  TRACK 41 AUDIO
    TITLE "0:"
    INDEX 01 00:43:13
  TRACK 42 AUDIO
    TITLE "13:cjc020_5525"
    INDEX 01 00:43:64
  TRACK 43 AUDIO
    TITLE "0:"
    INDEX 01 00:44:65
  TRACK 44 AUDIO
    TITLE "14:cjc020_5526"
    INDEX 01 00:44:67
  TRACK 45 AUDIO
    TITLE "0:"
    INDEX 01 00:46:00
  TRACK 46 AUDIO
    TITLE "13:cjc020_5527"
    INDEX 01 00:46:56
  TRACK 47 AUDIO
    TITLE "0:"
    INDEX 01 00:47:60
  TRACK 48 AUDIO
    TITLE "14:cjc020_5528"
    INDEX 01 00:47:62
  TRACK 49 AUDIO
    TITLE "0:"
    INDEX 01 00:51:30
  TRACK 50 AUDIO
    TITLE "13:cjc020_5529"
    INDEX 01 00:52:10
  TRACK 51 AUDIO
    TITLE "0:"
    INDEX 01 00:53:09
  TRACK 52 AUDIO
    TITLE "14:cjc020_5530"
    INDEX 01 00:53:11
  TRACK 53 AUDIO
    TITLE "0:"
    INDEX 01 00:54:44
  TRACK 54 AUDIO
    TITLE "13:cjc020_5531"
    INDEX 01 00:55:22
  TRACK 55 AUDIO
    TITLE "0:"
    INDEX 01 00:56:20
  TRACK 56 AUDIO
    TITLE "14:cjc020_5532"
    INDEX 01 00:56:25
  TRACK 57 AUDIO
    TITLE "0:"
    INDEX 01 00:57:41
  TRACK 58 AUDIO
    TITLE "13:cjc020_5533"
    INDEX 01 00:58:20
  TRACK 59 AUDIO
    TITLE "0:"
    INDEX 01 00:59:28
  TRACK 60 AUDIO
    TITLE "14:cjc020_5534"
    INDEX 01 00:59:30
  TRACK 61 AUDIO
    TITLE "0:"
    INDEX 01 01:02:71
  TRACK 62 AUDIO
    TITLE "13:cjc020_5535"
    INDEX 01 01:03:49
  TRACK 63 AUDIO
    TITLE "0:"
    INDEX 01 01:04:56
  TRACK 64 AUDIO
    TITLE "14:cjc020_5536"
    INDEX 01 01:04:62
  TRACK 65 AUDIO
    TITLE "0:"
    INDEX 01 01:08:35
  TRACK 66 AUDIO
    TITLE "13:cjc020_5537"
    INDEX 01 01:09:12
  TRACK 67 AUDIO
    TITLE "0:"
    INDEX 01 01:10:20
  TRACK 68 AUDIO
    TITLE "14:cjc020_5538"
    INDEX 01 01:10:22
  TRACK 69 AUDIO
    TITLE "0:"
    INDEX 01 01:12:52
  TRACK 70 AUDIO
    TITLE "13:cjc020_5539"
    INDEX 01 01:13:30
  TRACK 71 AUDIO
    TITLE "0:"
    INDEX 01 01:14:45
  TRACK 72 AUDIO
    TITLE "14:cjc020_5540"
    INDEX 01 01:14:49
  TRACK 73 AUDIO
    TITLE "0:"
    INDEX 01 01:17:14
  TRACK 74 AUDIO
    TITLE "13:cjc020_5541"
    INDEX 01 01:17:69
  TRACK 75 AUDIO
    TITLE "0:"
    INDEX 01 01:18:70
  TRACK 76 AUDIO
    TITLE "14:cjc020_5542"
    INDEX 01 01:18:72
  TRACK 77 AUDIO
    TITLE "0:"
    INDEX 01 01:22:48
  TRACK 78 AUDIO
    TITLE "13:cjc020_5543"
    INDEX 01 01:23:28
  TRACK 79 AUDIO
    TITLE "0:"
    INDEX 01 01:24:45
  TRACK 80 AUDIO
    TITLE "14:cjc020_5544"
    INDEX 01 01:24:49
  TRACK 81 AUDIO
    TITLE "0:"
    INDEX 01 01:25:68
  TRACK 82 AUDIO
    TITLE "13:cjc020_5545"
    INDEX 01 01:26:46
  TRACK 83 AUDIO
    TITLE "0:"
    INDEX 01 01:27:63
  TRACK 84 AUDIO
    TITLE "14:cjc020_5546"
    INDEX 01 01:27:65
  TRACK 85 AUDIO
    TITLE "0:"
    INDEX 01 01:30:40
  TRACK 86 AUDIO
    TITLE "13:cjc020_5547"
    INDEX 01 01:31:18
  TRACK 87 AUDIO
    TITLE "0:"
    INDEX 01 01:32:43
  TRACK 88 AUDIO
    TITLE "14:cjc020_5548"
    INDEX 01 01:32:45
  TRACK 89 AUDIO
    TITLE "0:"
    INDEX 01 01:33:68
  TRACK 90 AUDIO
    TITLE "13:cjc020_5549"
    INDEX 01 01:34:48
  TRACK 91 AUDIO
    TITLE "0:"
    INDEX 01 01:35:67
  TRACK 92 AUDIO
    TITLE "14:cjc020_5550"
    INDEX 01 01:35:73
  TRACK 93 AUDIO
    TITLE "0:"
    INDEX 01 01:37:28
  TRACK 94 AUDIO
    TITLE "13:cjc020_5551"
    INDEX 01 01:38:10
  TRACK 95 AUDIO
    TITLE "0:"
    INDEX 01 01:39:15
  TRACK 96 AUDIO
    TITLE "14:cjc020_5552"
    INDEX 01 01:39:19
  TRACK 97 AUDIO
    TITLE "0:"
    INDEX 01 01:40:54
  TRACK 98 AUDIO
    TITLE "13:cjc020_5553"
    INDEX 01 01:41:32
  TRACK 99 AUDIO
    TITLE "0:"
    INDEX 01 01:42:63
  TRACK 100 AUDIO
    TITLE "14:cjc020_5554"
    INDEX 01 01:42:65
  TRACK 101 AUDIO
    TITLE "0:"
    INDEX 01 01:45:34
  TRACK 102 AUDIO
    TITLE "13:cjc020_5555"
    INDEX 01 01:46:08
  TRACK 103 AUDIO
    TITLE "0:"
    INDEX 01 01:47:19
  TRACK 104 AUDIO
    TITLE "14:cjc020_5556"
    INDEX 01 01:47:21
  TRACK 105 AUDIO
    TITLE "0:"
    INDEX 01 01:48:63
